# xmcd
#
# Track frame offsets:
#	150
#	13338
#	42736
#	67191
#	80645
#	94979
#	116556
#	158493
#	172462
#	201296
#	205977
#	212801
#
# Disc length: 3003 seconds
#
# Revision: 0
# Processed by: cddbd v1.5.1PL2 Copyright (c) Steve Scherf et al.
# Submitted via: dBpowerAMP V4.0
#
DISCID=bd0bb90c
DTITLE=Robert Cray - Shoulda Been Home
DYEAR=2001
DGENRE=Blues
TTITLE0=Baby's Arms
TTITLE1=Already Gone
TTITLE2=Anytime
TTITLE3=Love Sickness
TTITLE4=I'm Afraid
TTITLE5=No One Special
TTITLE6=Out Of Eden
TTITLE7=Cry For Me Baby
TTITLE8=Far Away
TTITLE9=Renew Blues
TTITLE10=Help Me Forget
TTITLE11=The 12 Year Old Boy
EXTD=
EXTT0=
EXTT1=
EXTT2=
EXTT3=
EXTT4=
EXTT5=
EXTT6=
EXTT7=
EXTT8=
EXTT9=
EXTT10=
EXTT11=
PLAYORDER=
